<svg clip-rule="evenodd" fill-rule="evenodd" image-rendering="optimizeQuality" shape-rendering="geometricPrecision" text-rendering="geometricPrecision" viewBox="0 0 5000 5000" xmlns="http://www.w3.org/2000/svg" xmlns:xlink="http://www.w3.org/1999/xlink"><linearGradient id="a" gradientUnits="userSpaceOnUse" x1="2500.56" x2="2500.56" y1="4024.43" y2="375.57"><stop offset="0" stop-color="#008bff"/><stop offset="1" stop-color="#0af"/></linearGradient><path d="m2701 501 1000 1000c50 50 100 100 100 200s-100 200-200 200h-500c-50 0-100 50-100 100v2500c0 50-50 100-100 100h-800c-50 0-100-50-100-100v-2500c0-50-50-100-100-100h-500c-100 0-200-100-200-200s50-150 100-200l1000-1000c135-135 265-135 400 0z" fill="#fff" stroke="#fff" stroke-width="100"/></svg>